<svg xmlns="http://www.w3.org/2000/svg" viewBox="0 0 60 60" width="64" height="64"><path d="M55.2 15.5h-8.5l-4-10H17.3l-4 10H12v-5H6v5H4.8C2.2 15.5 0 17.7 0 20.3v29.4C0 52.3 2.2 54.5 4.8 54.5h50.3c2.7 0 4.8-2.2 4.8-4.8V20.3C60 17.7 57.8 15.5 55.2 15.5zM8 12.5h2v3H8V12.5zM58 49.7c0 1.6-1.3 2.8-2.8 2.8H4.8C3.3 52.5 2 51.2 2 49.7V20.3C2 18.8 3.3 17.5 4.8 17.5H6h6 2.7l4-10h22.6l4 10h9.9c1.5 0 2.8 1.3 2.8 2.8V49.7z" fill="#000000"/><path d="M30 14.5c-9.9 0-18 8.1-18 18s8.1 18 18 18 18-8.1 18-18S39.9 14.5 30 14.5zM30 48.5c-8.8 0-16-7.2-16-16s7.2-16 16-16 16 7.2 16 16S38.8 48.5 30 48.5z" fill="#000000"/><path d="M30 20.5c-6.6 0-12 5.4-12 12s5.4 12 12 12 12-5.4 12-12S36.6 20.5 30 20.5zM30 42.5c-5.5 0-10-4.5-10-10s4.5-10 10-10 10 4.5 10 10S35.5 42.5 30 42.5z" fill="#000000"/><path d="M52 19.5c-2.2 0-4 1.8-4 4s1.8 4 4 4 4-1.8 4-4S54.2 19.5 52 19.5zM52 25.5c-1.1 0-2-0.9-2-2s0.9-2 2-2 2 0.9 2 2S53.1 25.5 52 25.5z" fill="#000000"/></svg>