<svg xmlns="http://www.w3.org/2000/svg" viewBox="0 0 60 60" width="64" height="64"><path d="M57.5 21.5H55v-7h-2v-4H25.1l-3.6-5H2.7C1.2 5.5 0 6.7 0 8.2v43.7l0 0c0 0.6 0.2 1.1 0.5 1.6C1 54.1 1.8 54.5 2.6 54.5h44.8c1.2 0 2.2-0.8 2.5-1.8L60 24.6v-0.2C60 22.8 58.9 21.5 57.5 21.5zM53 21.5h-8v-1c0-0.6-0.4-1-1-1s-1 0.4-1 1v1h-5v-1c0-0.6-0.4-1-1-1s-1 0.4-1 1v1h-5v-1c0-0.6-0.4-1-1-1s-1 0.4-1 1v1h-5v-1c0-0.6-0.4-1-1-1s-1 0.4-1 1v1h-5v-1c0-0.6-0.4-1-1-1s-1 0.4-1 1v1h-2.3c-0.1 0-0.3 0-0.4 0 -0.5 0.1-0.9 0.3-1.3 0.6V16.5h42V21.5zM5 37.8V22.5h5.7c-0.2 0.2-0.3 0.5-0.4 0.8l-0.3 0.9L5 37.8zM9 20.5H6.4L7 19.9l2-2V20.5zM51 12.5v2H9.6L7 17.1V12.5h19.5H51zM2 8.2C2 7.8 2.3 7.5 2.7 7.5h17.8l2.1 3H5v8.6l-2 2v22.1l-1 2.7V8.2zM47.9 52.1c-0.1 0.2-0.3 0.4-0.5 0.4H2.6c-0.2 0-0.4-0.1-0.4-0.2 -0.1-0.1-0.2-0.3-0.1-0.4L3 49.1v0l9.2-25.1 0-0.1c0.1-0.2 0.3-0.4 0.5-0.4H55h2.5c0.4 0 0.5 0.5 0.5 0.8L47.9 52.1z" fill="#000000"/></svg>