<svg xmlns="http://www.w3.org/2000/svg" viewBox="0 0 512 512" width="64" height="64"><path d="M406 195.1c-1.1-78.1-64.9-141.2-143.2-141.2 -34.8 0-68.4 12.7-94.5 35.7 -23.3 20.5-39.2 48-45.5 78.1 -0.5 0-0.9 0-1.4 0C54.4 167.7 0 222.1 0 289S54.4 410.3 121.3 410.3h84.7c6 0 10.9-4.9 10.9-10.9 0-6-4.9-10.9-10.9-10.9H121.3c-54.9 0-99.5-44.6-99.5-99.5 0-54.9 44.6-99.5 99.5-99.5 2.9 0 6 0.2 9.4 0.5 5.8 0.5 11-3.6 11.8-9.4 3.9-28.8 18.2-55.3 40.1-74.6 22.1-19.5 50.5-30.2 80.1-30.2 66.9 0 121.4 54.5 121.4 121.4 0 2.4-0.2 4.9-0.4 7.5l-0.1 1.1c-0.2 3.2 1 6.4 3.3 8.6 2.3 2.2 5.5 3.4 8.7 3 2.9-0.3 5.8-0.4 8.7-0.4 47.3 0 85.8 38.5 85.8 85.8 0 47.3-38.5 85.8-85.8 85.8h-89.1c-6 0-10.9 4.9-10.9 10.9 0 6 4.9 10.9 10.9 10.9h89.1c59.3 0 107.6-48.3 107.6-107.6C512 243.9 464.6 196 406 195.1z" fill="#000000"/><path d="M262.8 105.2c-45.7 0-84.7 34.1-90.9 79.4 -0.8 6 3.4 11.5 9.3 12.3 0.5 0.1 1 0.1 1.5 0.1 5.4 0 10.1-4 10.8-9.4 4.7-34.5 34.5-60.5 69.3-60.5 6 0 10.9-4.9 10.9-10.9C273.7 110.1 268.8 105.2 262.8 105.2z" fill="#000000"/><path d="M312.4 320.1l-39.7-35.5c-6.8-6.1-17.2-6.1-24 0l-39.7 35.5c-4.5 4-4.9 10.9-0.9 15.4 4 4.5 10.9 4.9 15.4 0.9l26.3-23.5v134.3c0 6 4.9 10.9 10.9 10.9 6 0 10.9-4.9 10.9-10.9V312.9l26.3 23.5c2.1 1.9 4.7 2.8 7.3 2.8 3 0 6-1.2 8.1-3.6C317.3 331 316.9 324.1 312.4 320.1z" fill="#000000"/></svg>
 