<svg xmlns="http://www.w3.org/2000/svg" viewBox="0 0 56 56" width="64" height="64"><path d="M37 36.5c0.5 0 1-0.2 1.4-0.6 0.8-0.8 0.8-2 0-2.8l-8-8c-0.1-0.1-0.2-0.2-0.3-0.2 0 0-0.1-0.1-0.2-0.1 -0.1 0-0.1-0.1-0.2-0.1 -0.1 0-0.1 0-0.2-0.1 -0.1 0-0.1 0-0.2 0 -0.3-0.1-0.5-0.1-0.8 0 -0.1 0-0.1 0-0.2 0.1 -0.1 0-0.1 0-0.2 0.1 -0.1 0-0.1 0.1-0.2 0.1 -0.1 0-0.1 0.1-0.2 0.1 -0.1 0.1-0.2 0.2-0.3 0.3l-8 8c-0.8 0.8-0.8 2 0 2.8C20 36.3 20.5 36.5 21 36.5s1-0.2 1.4-0.6L27 31.3V49.5c0 1.1 0.9 2 2 2s2-0.9 2-2V31.3l4.6 4.6C36 36.3 36.5 36.5 37 36.5z" fill="#ffffff"/><path d="M47.8 20.5c-0.1 0-2.5-0.3-4.7 0C43.1 20.5 43 20.5 43 20.5c-0.5 0-0.9-0.4-1-0.8 -0.1-0.5 0.3-1.1 0.8-1.1 1.5-0.2 3.1-0.2 4.1-0.1C46.3 10.6 39.8 4.5 32.1 4.5c-4.7 0-9.4 2.4-12.3 6.1 2 1.7 3.2 4.1 3.2 6.9 0 0.6-0.4 1-1 1s-1-0.4-1-1c0-2.5-1.3-4.6-3.2-5.9 -0.2-0.1-0.5-0.3-0.7-0.4 -0.1 0-0.1-0.1-0.2-0.1 -0.3-0.1-0.5-0.2-0.8-0.3 0 0-0.1 0-0.1 0 -0.3-0.1-0.5-0.1-0.8-0.2 -0.1 0-0.2 0-0.2 0C14.6 10.5 14.3 10.5 14 10.5c-3.9 0-7 3.1-7 7 0 0.1 0 0.2 0 0.2l0 0.2 0 0.2C7 18.2 7 18.4 7 18.5v0.6l-0.6 0.3C2.7 21.2 0 25.5 0 29.7 0 35.6 4.9 40.5 10.8 40.5h14.2v-4.3l-1.2 1.2c-0.8 0.8-1.8 1.2-2.8 1.2s-2-0.4-2.8-1.2c-1.6-1.6-1.6-4.1 0-5.7l8-8h0c0.2-0.2 0.4-0.4 0.6-0.5 0.1-0.1 0.2-0.1 0.3-0.2 0.1-0.1 0.2-0.1 0.4-0.2 0.1-0.1 0.3-0.1 0.4-0.1 0.1 0 0.2-0.1 0.3-0.1 0.5-0.1 1.1-0.1 1.6 0 0.1 0 0.2 0.1 0.3 0.1 0.1 0 0.3 0.1 0.4 0.1 0.1 0.1 0.3 0.1 0.4 0.2 0.1 0.1 0.2 0.1 0.3 0.2 0.2 0.1 0.4 0.3 0.6 0.5h0l8 8c1.6 1.6 1.6 4.1 0 5.7 -0.8 0.8-1.8 1.2-2.8 1.2s-2-0.4-2.8-1.2l-1.2-1.2V40.5h2.3c0.1 0 0.1 0 0.2 0l0.2 0 0.3 0c0.1 0 0.1 0 0.2 0h9.8C51.5 40.5 56 36 56 30.5 56 25.7 52.5 21.4 47.8 20.5z" fill="#ffffff"/></svg>